<svg xmlns="http://www.w3.org/2000/svg" viewBox="0 0 145.82 37.65"><defs><style>.cls-1{fill:#9ac71e;}.cls-2{fill:#0082cb;}.cls-3{font-size:14.97px;font-family:PingFangSC-Semibold-GBpc-EUC-H, PingFang SC;}.cls-3,.cls-4{fill:#fff;}</style></defs><title>资源 28</title><g id="图层_2" data-name="图层 2"><g id="图层_1-2" data-name="图层 1"><path class="cls-1" d="M9,21.19.94,16.79,0,25.93a4.83,4.83,0,0,0,2.77,4.9,6.25,6.25,0,0,0,8.77-5.06A4.75,4.75,0,0,0,9,21.19Z"/><path class="cls-1" d="M13.12,9.84,9.42,3.05l-4.81,6a4.07,4.07,0,0,0-.28,4.72,5.26,5.26,0,0,0,8.5.43A4,4,0,0,0,13.12,9.84Z"/><path class="cls-1" d="M22.5,6.11,23.36,0,17.41,1.57A3.24,3.24,0,0,0,15,4.46a4.2,4.2,0,0,0,5.24,4.32A3.18,3.18,0,0,0,22.5,6.11Z"/><path class="cls-1" d="M30.55,9.21l4.74-1-2.73-4a2.54,2.54,0,0,0-2.77-1,3.29,3.29,0,0,0-1.82,5A2.51,2.51,0,0,0,30.55,9.21Z"/><polygon class="cls-2" points="13.64 14.28 13.64 18.78 17.26 18.78 17.26 36.97 22.59 36.97 22.59 18.78 26.21 18.78 26.21 14.28 13.64 14.28"/><path class="cls-2" d="M33.71,33.11V14.28H28.42V37h9a3.86,3.86,0,0,0,3.87-3.86H33.71Z"/><text class="cls-3" transform="translate(61.6 27.4) scale(0.93 1)">智能装车系统</text><path class="cls-2" d="M48.86,23h0l-.55,0h-.07a2,2,0,1,1,2-2h5a7,7,0,1,0-7,7h.06a2,2,0,1,1-2,2h-5a7,7,0,1,0,7.58-7Z"/><path class="cls-4" d="M64.13,32.23H62.8v-.68h3.47v.68H64.94v3.9h-.81Z"/><path class="cls-4" d="M66.25,34.41a1.68,1.68,0,0,1,1.59-1.81c.94,0,1.43.68,1.43,1.64a2,2,0,0,1,0,.39H67a1,1,0,0,0,1,1,1.49,1.49,0,0,0,.81-.25l.27.5a2.18,2.18,0,0,1-1.19.37A1.66,1.66,0,0,1,66.25,34.41Zm2.32-.33c0-.53-.23-.85-.71-.85a.87.87,0,0,0-.83.85Z"/><path class="cls-4" d="M70.05,35.24V31.18h.82v4.11c0,.19.09.27.17.27a.34.34,0,0,0,.13,0l.1.6a1.12,1.12,0,0,1-.43.07C70.27,36.21,70.05,35.84,70.05,35.24Z"/><path class="cls-4" d="M71.87,31.63a.51.51,0,1,1,.51.46A.47.47,0,0,1,71.87,31.63Zm.1,1.06h.81v3.44H72Z"/><path class="cls-4" d="M73.58,36.75a.87.87,0,0,1,.5-.73v0a.65.65,0,0,1-.32-.57.83.83,0,0,1,.39-.64v0a1.14,1.14,0,0,1-.46-.91,1.26,1.26,0,0,1,1.37-1.24,1.55,1.55,0,0,1,.51.09h1.24v.6h-.63a.92.92,0,0,1,.2.58A1.18,1.18,0,0,1,75.06,35a1.35,1.35,0,0,1-.47-.09.4.4,0,0,0-.17.33c0,.19.14.31.56.31h.62c.83,0,1.27.25,1.27.85s-.72,1.21-1.85,1.21C74.19,37.65,73.58,37.36,73.58,36.75Zm2.5-.18c0-.27-.21-.35-.61-.35H75a2.11,2.11,0,0,1-.47,0,.56.56,0,0,0-.27.45c0,.31.34.5.88.5S76.08,36.87,76.08,36.57Zm-.42-2.73a.6.6,0,1,0-1.2,0,.61.61,0,1,0,1.2,0Z"/><path class="cls-4" d="M77.14,34.41a1.68,1.68,0,0,1,1.6-1.81c.94,0,1.43.68,1.43,1.64a1.87,1.87,0,0,1,0,.39H77.94a1,1,0,0,0,1,1,1.45,1.45,0,0,0,.8-.25l.28.5a2.18,2.18,0,0,1-1.19.37A1.66,1.66,0,0,1,77.14,34.41Zm2.33-.33c0-.53-.24-.85-.71-.85a.86.86,0,0,0-.83.85Z"/><path class="cls-4" d="M81,32.69h.66l.07.46h0a1.62,1.62,0,0,1,1.14-.55c.74,0,1.06.5,1.06,1.37v2.16h-.81V34.08c0-.57-.16-.78-.54-.78a1.11,1.11,0,0,0-.79.43v2.4H81Z"/><path class="cls-4" d="M85,35V33.33h-.49v-.61l.53,0,.1-.94h.67v.94h.89v.64h-.89V35c0,.4.16.6.49.6a1.05,1.05,0,0,0,.36-.08l.14.6a2.32,2.32,0,0,1-.7.12C85.32,36.21,85,35.71,85,35Z"/><path class="cls-4" d="M88.93,31.55h.82v3.9h1.91v.68H88.93Z"/><path class="cls-4" d="M92.08,34.41a1.65,1.65,0,1,1,1.65,1.8A1.68,1.68,0,0,1,92.08,34.41Zm2.46,0c0-.69-.3-1.15-.81-1.15s-.81.46-.81,1.15.3,1.15.81,1.15S94.54,35.1,94.54,34.41Z"/><path class="cls-4" d="M95.91,35.2c0-.73.62-1.12,2-1.27,0-.37-.16-.67-.63-.67a1.94,1.94,0,0,0-1,.33l-.3-.53a2.69,2.69,0,0,1,1.42-.46c.86,0,1.29.53,1.29,1.49v2H98.1L98,35.75h0a1.7,1.7,0,0,1-1.07.46A1,1,0,0,1,95.91,35.2Zm2,0v-.78c-.94.12-1.25.37-1.25.71s.2.44.5.44A1.12,1.12,0,0,0,98,35.21Z"/><path class="cls-4" d="M99.53,34.41A1.63,1.63,0,0,1,101,32.6a1.28,1.28,0,0,1,.91.38l0-.55V31.18h.81v5H102l-.06-.37h0a1.45,1.45,0,0,1-1,.45C100.09,36.21,99.53,35.55,99.53,34.41Zm2.34.75v-1.6a1,1,0,0,0-.7-.29c-.44,0-.81.42-.81,1.13s.29,1.15.79,1.15A.91.91,0,0,0,101.87,35.16Z"/><path class="cls-4" d="M103.63,31.63a.5.5,0,1,1,.5.46A.46.46,0,0,1,103.63,31.63Zm.09,1.06h.81v3.44h-.81Z"/><path class="cls-4" d="M105.57,32.69h.66l.07.46h0a1.61,1.61,0,0,1,1.13-.55c.75,0,1.07.5,1.07,1.37v2.16h-.81V34.08c0-.57-.17-.78-.54-.78a1.08,1.08,0,0,0-.79.43v2.4h-.81Z"/><path class="cls-4" d="M109.28,36.75a.87.87,0,0,1,.5-.73v0a.64.64,0,0,1-.31-.57.82.82,0,0,1,.38-.64v0a1.17,1.17,0,0,1-.45-.91,1.26,1.26,0,0,1,1.36-1.24,1.61,1.61,0,0,1,.52.09h1.23v.6h-.63a.86.86,0,0,1,.2.58A1.18,1.18,0,0,1,110.76,35a1.39,1.39,0,0,1-.47-.09.39.39,0,0,0-.16.33c0,.19.14.31.56.31h.61c.83,0,1.27.25,1.27.85s-.72,1.21-1.85,1.21C109.9,37.65,109.28,37.36,109.28,36.75Zm2.51-.18c0-.27-.22-.35-.61-.35h-.48a2.17,2.17,0,0,1-.47,0,.58.58,0,0,0-.27.45c0,.31.34.5.89.5S111.79,36.87,111.79,36.57Zm-.43-2.73a.6.6,0,1,0-1.2,0,.61.61,0,1,0,1.2,0Z"/><path class="cls-4" d="M114.26,35.73l.37-.51a1.55,1.55,0,0,0,1,.39c.38,0,.55-.18.55-.42s-.37-.41-.74-.55-1-.43-1-1,.48-1,1.26-1a1.86,1.86,0,0,1,1.15.42l-.37.49a1.37,1.37,0,0,0-.76-.3c-.35,0-.52.17-.52.38s.35.38.73.52,1,.39,1,1-.47,1.06-1.34,1.06A2.12,2.12,0,0,1,114.26,35.73Z"/><path class="cls-4" d="M117.41,34.41A1.68,1.68,0,0,1,119,32.6c.93,0,1.43.68,1.43,1.64a1.87,1.87,0,0,1,0,.39h-2.2a1,1,0,0,0,1,1,1.48,1.48,0,0,0,.8-.25l.28.5a2.18,2.18,0,0,1-1.19.37A1.66,1.66,0,0,1,117.41,34.41Zm2.33-.33c0-.53-.24-.85-.72-.85a.86.86,0,0,0-.82.85Z"/><path class="cls-4" d="M121.22,32.69h.66l.07.37h0a1.68,1.68,0,0,1,1-.46c.87,0,1.36.69,1.36,1.76s-.7,1.85-1.47,1.85a1.41,1.41,0,0,1-.9-.37l0,.57v1.08h-.81Zm2.32,1.67c0-.68-.23-1.09-.75-1.09a1.12,1.12,0,0,0-.76.39v1.6a1.09,1.09,0,0,0,.69.29C123.19,35.55,123.54,35.14,123.54,34.36Z"/><path class="cls-4" d="M125,34.41a1.68,1.68,0,0,1,1.6-1.81c.93,0,1.43.68,1.43,1.64a1.87,1.87,0,0,1,0,.39h-2.2a1,1,0,0,0,1,1,1.49,1.49,0,0,0,.81-.25l.27.5a2.14,2.14,0,0,1-1.18.37A1.66,1.66,0,0,1,125,34.41Zm2.32-.33c0-.53-.23-.85-.71-.85a.87.87,0,0,0-.83.85Z"/><path class="cls-4" d="M128.78,32.69h.66l.06.61h0a1.17,1.17,0,0,1,1-.7.81.81,0,0,1,.39.08l-.14.7a1,1,0,0,0-.35-.06c-.28,0-.61.19-.82.71v2.1h-.81Z"/><path class="cls-4" d="M131.41,32.69h.66l.06.61h0a1.17,1.17,0,0,1,1-.7.81.81,0,0,1,.39.08l-.14.7a1,1,0,0,0-.35-.06c-.28,0-.61.19-.82.71v2.1h-.81Z"/><path class="cls-4" d="M133.67,35.2c0-.73.61-1.12,2-1.27,0-.37-.16-.67-.62-.67a2,2,0,0,0-1,.33l-.3-.53a2.73,2.73,0,0,1,1.43-.46c.86,0,1.29.53,1.29,1.49v2h-.67l-.06-.38h0a1.7,1.7,0,0,1-1.08.46A1,1,0,0,1,133.67,35.2Zm2,0v-.78c-.93.12-1.25.37-1.25.71s.21.44.5.44A1.1,1.1,0,0,0,135.7,35.21Z"/><path class="cls-4" d="M137.5,35V33.33H137v-.61l.54,0,.09-.94h.68v.94h.88v.64h-.88V35c0,.4.16.6.49.6a1.05,1.05,0,0,0,.36-.08l.14.6a2.33,2.33,0,0,1-.71.12C137.8,36.21,137.5,35.71,137.5,35Z"/><path class="cls-4" d="M139.59,34.41a1.65,1.65,0,1,1,1.65,1.8A1.68,1.68,0,0,1,139.59,34.41Zm2.46,0c0-.69-.31-1.15-.81-1.15s-.82.46-.82,1.15.31,1.15.82,1.15S142.05,35.1,142.05,34.41Z"/><path class="cls-4" d="M143.69,32.69h.67l.06.61h0a1.19,1.19,0,0,1,1-.7.87.87,0,0,1,.39.08l-.14.7a1,1,0,0,0-.36-.06c-.27,0-.61.19-.82.71v2.1h-.81Z"/></g></g></svg>